<?xml version="1.0" standalone="no"?>
<!DOCTYPE svg PUBLIC "-//W3C//DTD SVG 20010904//EN"
 "http://www.w3.org/TR/2001/REC-SVG-20010904/DTD/svg10.dtd">
<svg version="1.0" xmlns="http://www.w3.org/2000/svg"
 width="1668.000000pt" height="1668.000000pt" viewBox="0 0 1668.000000 1668.000000"
 preserveAspectRatio="xMidYMid meet">
<metadata>
Created by potrace 1.14, written by Peter Selinger 2001-2017
</metadata>
<g transform="translate(0.000000,1668.000000) scale(0.100000,-0.100000)"
fill="#000000" stroke="none">
<path d="M8800 16485 c0 -8 -25 -75 -56 -148 -31 -72 -89 -226 -129 -342 -40
-115 -94 -259 -120 -320 -48 -112 -71 -173 -132 -350 -19 -55 -40 -113 -48
-130 -7 -16 -38 -102 -68 -190 -30 -88 -68 -196 -84 -240 l-30 -80 34 -180
c19 -99 49 -263 68 -365 19 -102 51 -268 70 -370 20 -102 45 -234 56 -295 11
-60 24 -126 29 -145 5 -19 13 -66 19 -105 6 -38 15 -90 21 -115 6 -25 15 -72
21 -105 5 -33 14 -68 19 -77 6 -10 10 -31 10 -48 0 -17 4 -38 9 -48 5 -9 17
-53 27 -97 9 -44 21 -84 24 -90 4 -5 10 -23 12 -40 3 -16 17 -82 31 -146 15
-64 33 -152 41 -195 9 -43 19 -98 24 -121 l9 -41 -34 -6 c-18 -3 -49 -9 -68
-12 -19 -3 -38 -10 -41 -15 -12 -20 -43 -9 -48 19 -22 108 -293 1601 -361
1992 -40 226 -53 280 -69 280 -14 0 -56 -53 -56 -70 0 -6 -4 -18 -9 -28 -6 -9
-22 -51 -37 -92 -26 -70 -96 -224 -128 -280 -28 -49 -39 -107 -32 -167 4 -32
9 -80 12 -108 3 -27 9 -59 14 -70 9 -21 14 -44 33 -140 7 -33 17 -67 22 -75
11 -16 19 -53 54 -240 12 -63 33 -172 47 -243 13 -70 24 -138 24 -150 0 -13
13 -77 30 -143 16 -65 30 -130 30 -144 0 -14 7 -50 16 -80 27 -93 75 -334 72
-359 -2 -18 -15 -28 -53 -42 -27 -10 -58 -19 -68 -19 -10 0 -33 -11 -50 -23
-18 -13 -48 -30 -67 -37 -51 -19 -247 -117 -278 -138 -15 -10 -35 -22 -45 -25
-10 -4 -62 -34 -115 -67 -53 -34 -106 -66 -117 -73 -25 -16 -99 -66 -157 -107
l-48 -34 -27 25 c-16 14 -187 174 -381 355 -478 445 -1004 924 -1015 924 -5 0
-22 10 -39 21 -25 18 -33 20 -52 10 -18 -10 -65 -6 -241 17 -185 25 -223 28
-239 16 -17 -12 -15 -17 40 -75 54 -57 236 -227 595 -554 78 -71 164 -147 192
-167 67 -50 277 -238 277 -248 0 -9 254 -240 332 -303 26 -21 100 -86 164
-144 l116 -107 -28 -20 c-16 -12 -48 -38 -72 -60 l-43 -39 -26 24 c-167 151
-1407 1345 -1588 1529 l-150 153 -140 54 c-77 30 -219 83 -315 118 -295 106
-1151 424 -1230 456 -41 17 -86 33 -99 36 -13 2 -39 10 -59 18 -55 24 -60 21
-57 -34 2 -32 17 -78 45 -137 23 -49 50 -113 61 -142 10 -29 34 -79 53 -110
19 -31 85 -158 146 -282 62 -124 136 -263 165 -310 28 -47 132 -243 229 -437
116 -231 184 -354 196 -358 30 -10 278 -149 308 -173 56 -45 364 -242 379
-242 29 0 195 -103 225 -139 10 -12 24 -21 31 -21 8 0 22 -9 32 -20 10 -11 22
-20 27 -20 9 0 157 -85 228 -131 25 -16 59 -36 75 -44 17 -9 44 -25 60 -35 17
-11 44 -27 61 -34 17 -8 36 -22 44 -30 7 -9 20 -16 30 -16 9 0 25 -9 35 -20
10 -11 23 -20 29 -20 15 0 176 -84 301 -157 134 -78 142 -83 180 -108 40 -27
86 -53 108 -61 9 -3 17 -10 17 -14 0 -17 -95 -150 -107 -150 -6 0 -25 6 -40
12 -37 17 -392 244 -419 269 -11 10 -25 19 -31 19 -6 0 -26 12 -46 28 -34 26
-75 52 -126 81 -15 8 -165 104 -336 214 -665 430 -857 548 -893 550 -18 1 -27
-4 -30 -15 -2 -10 49 -121 112 -247 76 -151 116 -241 116 -262 0 -25 10 -41
43 -71 23 -22 58 -48 77 -58 19 -10 46 -30 59 -44 14 -14 32 -26 42 -26 10 0
20 -4 23 -9 4 -5 27 -19 54 -32 26 -12 58 -30 72 -39 14 -9 54 -33 90 -52 36
-20 223 -139 415 -265 193 -126 412 -269 488 -317 75 -49 137 -93 137 -97 0
-5 -27 -66 -61 -136 -33 -71 -64 -137 -70 -148 -18 -40 -79 -200 -79 -210 0
-5 -6 -21 -13 -35 -7 -14 -21 -52 -31 -85 -10 -33 -22 -71 -27 -85 l-9 -25
-533 -53 c-292 -29 -552 -53 -577 -52 -25 0 -88 -4 -140 -10 -52 -6 -196 -19
-320 -30 -129 -12 -270 -30 -330 -44 -58 -13 -129 -27 -157 -31 -41 -5 -61
-15 -90 -42 -21 -19 -69 -59 -108 -89 -38 -29 -103 -84 -144 -122 -65 -61 -73
-72 -67 -95 6 -26 10 -27 69 -27 34 0 163 9 287 20 124 11 331 27 460 35 129
9 316 24 415 35 99 11 369 38 600 59 231 22 441 43 467 46 l47 6 -3 -63 c-4
-79 -15 -118 -31 -118 -35 0 -2090 -111 -2220 -120 -82 -5 -168 -13 -190 -16
-44 -7 -291 -123 -400 -189 -38 -23 -275 -150 -525 -280 -250 -131 -535 -283
-633 -337 -98 -54 -181 -98 -185 -98 -18 -1 -62 -48 -64 -69 -3 -26 2 -28 302
-119 86 -27 1277 -365 1461 -415 66 -18 85 -20 135 -10 70 12 278 73 349 101
28 10 93 29 145 42 52 12 163 42 245 66 83 24 193 55 245 70 52 14 362 104
689 200 326 95 601 175 610 176 13 3 17 -8 19 -58 l3 -61 -243 -72 c-134 -40
-416 -124 -628 -187 -212 -63 -455 -136 -540 -163 -206 -64 -472 -141 -488
-141 -27 0 -72 -31 -72 -49 0 -15 22 -26 103 -54 56 -20 154 -50 217 -66 63
-16 133 -38 155 -47 44 -19 215 -29 244 -14 9 5 63 23 121 40 58 17 206 64
330 105 124 40 304 96 400 125 162 48 321 103 385 132 20 9 31 9 45 0 15 -9
21 -9 27 1 5 7 10 -3 14 -28 12 -73 31 -160 39 -180 4 -11 15 -47 24 -80 32
-116 77 -252 97 -287 5 -10 9 -23 9 -29 0 -11 8 -29 65 -154 60 -131 85 -187
85 -195 0 -3 -76 -74 -168 -157 -93 -83 -303 -271 -468 -419 -571 -511 -755
-686 -771 -733 -60 -180 -118 -500 -95 -523 17 -17 -34 -60 668 557 132 115
309 273 394 350 313 282 642 570 651 570 5 0 25 -25 44 -55 l36 -55 -43 -39
c-24 -21 -171 -147 -328 -280 -157 -132 -523 -446 -813 -696 -291 -250 -551
-473 -577 -495 -45 -35 -57 -57 -131 -215 -45 -96 -107 -233 -139 -305 -80
-181 -288 -638 -350 -770 -156 -328 -260 -577 -260 -622 0 -24 4 -23 322 91
54 19 132 51 174 70 41 20 180 77 307 127 128 50 246 97 262 105 17 8 208 85
425 172 l395 158 42 64 c46 72 251 361 298 421 17 21 46 60 65 86 19 26 40 53
46 58 6 6 36 48 67 95 31 47 70 103 87 125 16 22 34 50 39 62 5 11 15 24 20
28 6 3 31 36 56 73 24 37 58 85 75 107 49 65 72 99 122 171 27 38 68 98 93
134 25 36 70 103 101 150 64 96 264 383 292 419 l19 23 61 -42 c34 -23 64 -45
66 -48 2 -4 -174 -241 -391 -527 -768 -1011 -903 -1195 -903 -1234 0 -21 3
-22 48 -15 26 4 81 22 124 40 42 19 81 34 87 34 24 0 286 92 344 121 61 30 65
35 313 367 139 186 361 486 494 667 134 182 243 331 244 332 1 1 42 -18 91
-42 50 -25 93 -45 98 -45 4 0 29 -9 55 -21 102 -45 113 -49 132 -49 35 0 25
39 -85 315 -27 66 -79 215 -118 330 -38 116 -76 225 -84 243 -27 61 -60 166
-82 262 -12 52 -31 124 -41 160 -10 36 -25 99 -34 140 -8 41 -29 138 -46 215
-78 361 -90 510 -86 1000 5 468 9 514 96 1014 17 99 62 293 77 335 8 22 34
106 59 185 25 79 71 202 103 275 32 72 77 176 100 231 87 208 340 628 525 875
162 216 563 613 810 802 33 26 84 65 111 86 88 70 246 173 405 264 52 31 118
69 145 85 183 110 410 218 665 316 493 190 580 222 638 237 38 10 43 14 40 37
-4 36 -68 68 -268 137 -122 41 -241 74 -321 88 l-57 10 -4 487 c-2 267 0 496
4 509 12 35 10 910 -2 917 -5 3 -10 31 -10 62 0 45 -3 56 -18 60 -10 2 -26 16
-34 31 -9 15 -45 61 -80 102 -70 83 -138 176 -138 188 0 12 -34 42 -47 42 -19
0 -40 -1187 -35 -1923 3 -424 3 -428 -17 -418 -11 6 -54 11 -97 11 l-77 0 7
228 c4 125 11 463 17 751 5 288 12 528 15 532 2 4 5 102 5 218 0 116 5 273 11
348 5 76 12 207 13 292 3 135 1 159 -16 205 -12 28 -27 71 -36 96 -8 25 -29
74 -48 110 -18 36 -51 112 -74 170 -23 58 -53 128 -66 155 -13 28 -38 87 -54
132 -35 96 -87 221 -129 313 -16 36 -54 128 -85 205 -30 77 -76 185 -102 240
-26 55 -65 145 -87 200 -22 55 -44 106 -50 113 -15 18 -78 16 -78 -3z"/>
<path d="M13086 13798 c-9 -29 -28 -96 -42 -148 -66 -240 -202 -526 -313 -662
-106 -129 -270 -251 -396 -293 -27 -9 -99 -21 -160 -26 -232 -18 -382 -47
-470 -91 -22 -11 -89 -57 -149 -102 -83 -62 -123 -101 -172 -166 -86 -114
-108 -181 -102 -324 3 -89 7 -108 28 -138 26 -39 99 -80 195 -109 107 -33 108
-33 236 97 126 128 191 172 301 205 40 11 101 34 135 49 34 15 83 33 110 38
77 17 210 71 266 109 223 150 368 340 473 618 43 113 71 311 99 700 20 271 20
295 -3 295 -14 0 -23 -14 -36 -52z"/>
<path d="M13636 13603 c-6 -14 -5 -15 5 -6 7 7 10 15 7 18 -3 3 -9 -2 -12 -12z"/>
<path d="M13200 13514 c-6 -14 -10 -62 -10 -107 0 -138 -35 -422 -67 -542 -12
-45 15 4 44 80 33 84 58 205 71 340 8 84 7 217 -2 241 -8 22 -26 16 -36 -12z"/>
<path d="M12360 12966 c-19 -7 -89 -40 -155 -73 -71 -36 -161 -72 -220 -88
-234 -63 -342 -107 -410 -166 -55 -49 -44 -68 14 -25 62 46 140 80 216 94 106
20 198 32 271 36 39 2 100 12 135 23 35 11 90 28 122 37 91 27 147 96 126 154
-10 25 -44 28 -99 8z"/>
<path d="M11168 11627 c-10 -23 -18 -50 -18 -59 0 -16 36 -47 143 -125 21 -16
74 -59 118 -98 44 -38 108 -93 143 -122 68 -55 213 -216 318 -353 162 -209
327 -501 437 -769 421 -1025 359 -2239 -170 -3311 -383 -777 -988 -1434 -1713
-1859 -552 -324 -1232 -519 -1831 -525 l-170 -2 -18 -34 -17 -35 27 -22 c21
-17 41 -23 81 -23 34 0 51 -4 47 -10 -4 -7 2 -9 17 -6 12 3 115 8 228 11 113
3 243 13 290 21 47 9 110 19 140 24 54 8 270 56 380 84 117 29 208 60 270 91
36 18 106 47 155 64 136 49 455 210 587 298 265 177 394 271 500 363 147 127
467 453 545 555 33 44 71 89 83 100 12 11 40 46 61 77 22 32 50 68 63 80 21
20 196 273 196 283 0 2 26 48 58 102 66 111 242 466 242 487 0 3 11 29 23 58
13 29 30 69 36 88 7 19 17 44 21 55 5 11 16 43 25 70 10 28 21 59 26 70 4 11
15 43 23 70 8 28 22 75 31 105 18 58 43 155 52 205 3 17 9 35 14 40 4 6 11 41
15 78 4 37 11 70 15 73 5 3 9 21 9 40 0 19 4 42 10 52 5 9 14 62 20 117 6 55
16 138 22 185 13 109 13 707 0 825 -16 137 -40 304 -51 360 -11 54 -38 192
-48 240 -3 17 -9 35 -13 40 -4 6 -11 32 -15 59 -3 27 -11 60 -17 75 -6 14 -14
35 -18 46 -5 11 -16 47 -26 80 -9 33 -21 64 -26 69 -4 6 -8 18 -8 28 0 9 -8
34 -17 55 -9 21 -28 63 -41 93 -29 66 -148 307 -165 335 -7 11 -27 43 -44 72
-18 30 -33 56 -33 58 0 5 -26 43 -102 150 -16 22 -39 56 -52 75 -51 75 -232
286 -327 380 -94 92 -287 257 -359 306 -19 13 -54 37 -78 54 -23 16 -47 30
-52 30 -6 0 -10 5 -10 10 0 23 -16 7 -32 -33z"/>
<path d="M10715 11243 c-45 -7 -122 -61 -140 -99 -26 -56 -35 -165 -41 -509
-5 -307 -4 -347 20 -570 14 -132 39 -314 56 -405 17 -91 37 -201 45 -245 14
-77 67 -442 80 -555 4 -30 15 -116 25 -190 10 -74 26 -214 34 -310 9 -96 23
-249 32 -340 8 -91 19 -250 25 -355 5 -104 14 -246 19 -315 6 -69 14 -300 20
-515 5 -214 14 -408 19 -430 6 -22 11 -57 11 -79 0 -57 27 -151 67 -236 43
-90 57 -107 102 -126 89 -37 107 -12 132 174 18 140 38 275 59 395 15 85 18
683 7 1437 l-8 535 58 70 c32 38 92 103 134 145 42 41 95 100 116 130 51 70
134 162 141 156 18 -19 33 -214 42 -546 16 -643 48 -1156 78 -1260 17 -61 70
-181 88 -201 17 -18 64 -27 64 -11 0 4 19 32 42 62 22 30 59 93 81 140 73 158
94 288 103 660 6 231 2 333 -31 720 -8 96 -19 231 -25 300 -5 69 -13 145 -16
170 -7 53 -76 328 -97 385 -8 22 -24 81 -36 132 -65 278 -307 755 -547 1078
-103 138 -221 285 -271 337 -23 23 -62 66 -88 95 -73 81 -166 139 -260 163
-81 20 -86 20 -140 13z m289 -696 c78 -116 143 -241 326 -623 27 -56 65 -143
85 -195 19 -52 40 -105 46 -117 9 -22 -1 -35 -109 -146 -65 -68 -140 -151
-167 -185 -58 -74 -50 -86 -105 144 -50 209 -67 302 -75 404 -3 47 -21 200
-40 340 -34 246 -42 365 -29 430 4 17 8 31 9 31 2 0 28 -37 59 -83z"/>
<path d="M9544 10812 c-106 -43 -154 -73 -244 -152 -87 -77 -134 -158 -159
-274 -40 -183 -44 -248 -27 -406 19 -173 32 -261 46 -315 20 -70 62 -209 71
-230 5 -11 17 -47 28 -80 25 -76 107 -261 152 -342 19 -34 67 -122 108 -195
158 -286 179 -326 213 -403 82 -184 99 -224 134 -310 20 -49 39 -101 41 -114
3 -13 21 -52 39 -88 79 -150 140 -375 169 -618 28 -242 17 -363 -55 -569 -28
-81 -160 -319 -212 -383 -58 -70 -198 -179 -277 -215 -83 -38 -187 -51 -255
-31 -83 25 -159 111 -233 263 -64 131 -105 247 -123 346 -23 121 -31 171 -39
239 -18 146 -72 269 -147 334 -56 50 -133 41 -197 -24 -55 -54 -117 -192 -152
-335 -23 -94 -37 -391 -24 -509 21 -195 70 -436 104 -518 8 -18 12 -33 10 -33
-5 0 29 -97 52 -150 29 -65 76 -125 172 -218 106 -104 196 -171 280 -210 51
-23 83 -32 226 -64 61 -14 179 -15 260 -1 75 12 201 56 237 83 15 11 31 20 36
20 5 0 17 9 27 20 9 10 56 45 103 76 150 100 224 179 463 498 90 121 129 195
205 389 34 89 82 303 96 431 15 138 15 416 0 503 -7 40 -14 109 -17 154 -7 99
-38 263 -64 339 -10 30 -33 102 -51 160 -40 130 -109 305 -152 386 -90 165
-161 287 -245 420 -7 10 -28 52 -47 92 -20 40 -46 87 -60 105 -35 46 -147 239
-194 333 -52 103 -162 376 -190 469 -54 181 -88 387 -78 460 16 106 113 232
195 255 53 15 146 12 189 -5 42 -18 129 -106 137 -138 3 -12 14 -69 24 -127
24 -135 54 -211 100 -261 42 -44 72 -49 119 -22 50 29 62 61 69 185 9 175 -37
375 -112 495 -86 134 -158 205 -280 273 -66 37 -137 50 -263 49 -110 -1 -122
-3 -208 -37z"/>
<path d="M15335 10295 c-68 -14 -136 -35 -175 -55 -72 -36 -250 -155 -410
-274 -166 -124 -328 -187 -600 -235 -63 -12 -180 -32 -260 -46 -224 -39 -289
-54 -370 -82 -401 -138 -461 -174 -535 -327 l-45 -92 0 -140 c0 -263 47 -335
234 -356 190 -20 350 32 546 178 90 68 136 107 416 354 65 59 151 130 189 160
39 30 113 91 165 135 52 45 136 113 187 151 50 38 167 141 259 227 187 177
300 263 443 336 53 27 105 59 115 70 19 21 19 21 -15 20 -19 -1 -84 -11 -144
-24z"/>
<path d="M15585 10248 c-24 -38 -119 -104 -265 -183 -100 -55 -210 -136 -210
-156 0 -5 26 11 58 35 71 54 346 190 364 180 7 -4 10 -4 6 1 -4 4 7 19 23 32
34 29 59 72 59 103 0 28 -12 24 -35 -12z"/>
<path d="M14582 10150 c-12 -5 -57 -36 -100 -69 -132 -102 -321 -165 -557
-186 -175 -16 -226 -27 -246 -52 -13 -15 -12 -15 8 -4 25 13 268 34 295 26 29
-10 199 24 308 61 117 40 225 95 300 155 71 56 66 98 -8 69z"/>
<path d="M8465 9918 c-185 -64 -294 -145 -453 -332 -84 -98 -181 -255 -277
-446 -83 -165 -107 -225 -171 -415 -30 -88 -58 -168 -64 -177 -5 -10 -10 -25
-10 -33 0 -8 -4 -23 -9 -33 -5 -9 -16 -51 -25 -92 -17 -77 -24 -107 -47 -195
-7 -27 -14 -70 -16 -95 -2 -25 -8 -54 -13 -65 -23 -53 -18 -437 11 -785 5 -69
14 -190 20 -270 27 -406 130 -1096 205 -1379 89 -334 330 -688 583 -857 62
-41 81 -48 132 -52 83 -6 89 1 89 110 0 126 -29 254 -110 490 -116 335 -196
675 -245 1048 -9 69 -23 163 -30 210 -56 340 -92 718 -69 740 5 4 72 40 149
80 349 180 532 315 695 515 122 149 239 406 281 615 5 25 20 88 34 140 45 172
58 467 30 668 -44 311 -217 548 -445 606 -69 18 -199 20 -245 4z m238 -576
c13 -12 29 -22 35 -22 6 0 21 -18 32 -40 25 -48 27 -165 6 -267 -77 -364 -230
-657 -460 -881 -99 -97 -137 -128 -265 -224 -20 -14 -66 -42 -103 -62 l-67
-35 -20 25 c-35 44 -61 287 -41 392 33 184 136 441 271 675 82 142 101 168
192 264 135 142 247 207 345 200 36 -3 59 -10 75 -25z"/>
<path d="M13357 7233 c-4 -3 -7 -14 -7 -23 0 -14 25 -35 137 -117 49 -35 90
-102 119 -194 16 -48 47 -111 75 -153 49 -73 158 -186 180 -186 13 0 9 5 -71
96 -51 58 -87 139 -126 276 -15 51 -40 115 -57 141 -51 82 -220 190 -250 160z"/>
<path d="M12940 7189 c-32 -12 -53 -49 -96 -169 -47 -127 -68 -223 -60 -272 4
-21 34 -94 67 -161 115 -228 286 -455 404 -534 138 -92 320 -161 435 -164 98
-2 427 33 474 51 16 6 108 24 205 41 161 27 183 29 271 19 52 -6 117 -17 143
-26 49 -16 229 -139 329 -225 31 -27 60 -49 63 -49 12 0 -6 53 -35 105 -33 57
-194 222 -267 271 -26 19 -72 43 -102 54 -85 33 -293 71 -431 80 -107 7 -145
15 -251 49 -145 47 -267 115 -347 194 -88 86 -142 175 -270 446 -14 30 -41 72
-60 92 -69 77 -228 166 -344 194 -71 17 -92 17 -128 4z"/>
<path d="M14555 5922 c-69 -6 -95 -13 -95 -27 0 -11 13 -15 47 -15 79 0 214
-30 301 -67 46 -19 85 -33 88 -31 7 8 -148 105 -186 117 -51 16 -121 27 -155
23z"/>
<path d="M11155 4949 c-67 -25 -178 -110 -215 -164 -83 -121 -116 -280 -86
-409 27 -114 48 -151 98 -174 23 -10 53 -30 65 -43 60 -65 162 -299 177 -404
12 -80 52 -233 84 -320 16 -44 35 -96 42 -115 19 -55 100 -216 152 -302 146
-242 383 -497 590 -637 25 -17 51 -31 57 -31 26 0 7 44 -45 102 -49 54 -156
189 -232 292 -63 85 -209 408 -241 534 -35 135 -25 368 28 677 22 128 43 324
35 336 -2 4 -11 42 -20 86 -9 43 -32 116 -51 162 -34 82 -157 291 -172 291 -4
0 -32 21 -61 46 -105 90 -134 100 -205 73z"/>
<path d="M10676 4551 c-16 -73 -17 -92 -6 -160 16 -101 41 -164 92 -232 37
-49 98 -100 98 -81 0 4 -15 25 -32 47 -18 22 -27 35 -19 31 9 -6 12 -5 9 5 -3
8 -10 13 -15 12 -5 -1 -9 6 -10 15 0 9 -12 44 -27 78 -22 53 -37 125 -64 319
l-7 50 -19 -84z"/>
<path d="M8712 3920 c-44 -10 -119 -74 -164 -141 -125 -183 -160 -377 -119
-654 6 -38 19 -129 30 -202 29 -191 76 -323 172 -485 44 -73 90 -144 103 -158
13 -14 39 -50 59 -81 19 -31 51 -78 72 -104 48 -64 99 -166 136 -273 61 -180
45 -481 -42 -775 -11 -38 -18 -71 -15 -74 13 -13 77 72 119 159 62 125 92 234
117 429 53 416 37 548 -115 904 -25 61 -62 157 -82 215 -52 150 -51 194 14
640 8 58 17 177 20 265 9 281 -31 347 -212 344 -33 -1 -75 -5 -93 -9z"/>
<path d="M11810 3735 c0 -318 111 -711 242 -860 35 -41 41 -42 68 -15 54 54
-1 218 -136 410 -101 144 -125 230 -139 483 -6 91 -10 117 -21 117 -11 0 -14
-26 -14 -135z"/>
<path d="M9095 3408 c-2 -7 -6 -134 -9 -283 -6 -246 -5 -273 11 -305 10 -19
25 -35 33 -35 18 0 39 56 39 106 1 19 -5 82 -13 140 -8 57 -20 168 -27 247
-11 127 -22 167 -34 130z"/>
<path d="M8750 2013 c67 -113 111 -206 129 -272 25 -90 31 -98 31 -39 0 88
-61 233 -132 314 -40 45 -56 43 -28 -3z"/>
</g>
</svg>
